<svg width="656" height="525" viewBox="0 0 656 525" fill="none" xmlns="http://www.w3.org/2000/svg">
<path fill-rule="evenodd" clip-rule="evenodd" d="M328 229.706L328 237.909L-5.07161e-07 373.241L-7.60741e-07 365.038L328 229.706ZM328 221.503L-1.01432e-06 356.835L-1.2679e-06 348.632L328 213.3L328 221.503ZM-1.77506e-06 332.226L-1.52148e-06 340.429L328 205.097L328 196.893L-1.77506e-06 332.226ZM-2.02864e-06 324.023L-2.28222e-06 315.82L328 180.487L328 188.69L-2.02864e-06 324.023ZM-2.78938e-06 299.413L-2.5358e-06 307.616L328 172.284L328 164.081L-2.78938e-06 299.413ZM-3.04296e-06 291.21L-3.29654e-06 283.007L328 147.675L328 155.878L-3.04296e-06 291.21ZM-3.8037e-06 266.601L-3.55012e-06 274.804L328 139.472L328 131.268L-3.8037e-06 266.601ZM-4.05728e-06 258.398L-4.31086e-06 250.195L328 114.862L328 123.065L-4.05728e-06 258.398ZM-4.81803e-06 233.788L-4.56445e-06 241.991L328 106.659L328 98.4559L-4.81803e-06 233.788ZM-5.07161e-06 225.585L-5.32519e-06 217.382L328 82.0497L328 90.2528L-5.07161e-06 225.585ZM-5.83235e-06 200.976L-5.57877e-06 209.179L328 73.8466L328 65.6434L-5.83235e-06 200.976ZM-6.08593e-06 192.773L-6.33951e-06 184.569L328 49.2372L328 57.4403L-6.08593e-06 192.773ZM-6.84667e-06 168.163L-6.59309e-06 176.366L328 41.034L328 32.8309L-6.84667e-06 168.163ZM-7.10025e-06 159.96L-7.35383e-06 151.757L328 16.4247L328 24.6278L-7.10025e-06 159.96ZM-7.86099e-06 135.351L-7.60741e-06 143.554L328 8.22154L328 0.0184189L-7.86099e-06 135.351ZM328 254.315L328 246.112L-2.5358e-07 381.445L0 389.648L328 254.315Z" fill="#FF6D00"/>
<path fill-rule="evenodd" clip-rule="evenodd" d="M656 365.039L656 373.242L328 237.891L328 229.687L656 365.039ZM656 356.836L328 221.484L328 213.281L656 348.633L656 356.836ZM328 196.875L328 205.078L656 340.429L656 332.226L328 196.875ZM328 188.672L328 180.469L656 315.82L656 324.023L328 188.672ZM328 164.062L328 172.266L656 307.617L656 299.414L328 164.062ZM328 155.859L328 147.656L656 283.008L656 291.211L328 155.859ZM328 131.25L328 139.453L656 274.804L656 266.601L328 131.25ZM328 123.047L328 114.844L656 250.195L656 258.398L328 123.047ZM328 98.4374L328 106.641L656 241.992L656 233.789L328 98.4374ZM328 90.2343L328 82.0312L656 217.383L656 225.586L328 90.2343ZM328 65.6249L328 73.8281L656 209.179L656 200.976L328 65.6249ZM328 57.4218L328 49.2187L656 184.57L656 192.773L328 57.4218ZM328 32.8124L328 41.0156L656 176.367L656 168.164L328 32.8124ZM328 24.6093L328 16.4062L656 151.758L656 159.961L328 24.6093ZM328 -6.09308e-05L328 8.20306L656 143.555L656 135.351L328 -6.09308e-05ZM656 389.648L656 381.445L328 246.094L328 254.297L656 389.648Z" fill="#FF6D00"/>
<path fill-rule="evenodd" clip-rule="evenodd" d="M328 295.312L328 287.109L-5.07088e-07 151.757L-7.60632e-07 159.96L328 295.312ZM328 303.515L-1.01418e-06 168.163L-1.26772e-06 176.366L328 311.718L328 303.515ZM-1.77481e-06 192.773L-1.52126e-06 184.569L328 319.921L328 328.124L-1.77481e-06 192.773ZM-2.02835e-06 200.976L-2.2819e-06 209.179L328 344.53L328 336.327L-2.02835e-06 200.976ZM-2.78899e-06 225.585L-2.53544e-06 217.382L328 352.734L328 360.937L-2.78899e-06 225.585ZM-3.04253e-06 233.788L-3.29607e-06 241.991L328 377.343L328 369.14L-3.04253e-06 233.788ZM-3.80316e-06 258.398L-3.54962e-06 250.194L328 385.546L328 393.749L-3.80316e-06 258.398ZM-4.05671e-06 266.601L-4.31025e-06 274.804L328 410.155L328 401.952L-4.05671e-06 266.601ZM-4.81734e-06 291.21L-4.56379e-06 283.007L328 418.359L328 426.562L-4.81734e-06 291.21ZM-5.07088e-06 299.413L-5.32443e-06 307.616L328 442.968L328 434.765L-5.07088e-06 299.413ZM-5.83152e-06 324.023L-5.57797e-06 315.819L328 451.171L328 459.374L-5.83152e-06 324.023ZM-6.08506e-06 332.226L-6.3386e-06 340.429L328 475.78L328 467.577L-6.08506e-06 332.226ZM-6.84569e-06 356.835L-6.59215e-06 348.632L328 483.984L328 492.187L-6.84569e-06 356.835ZM-7.09924e-06 365.038L-7.35278e-06 373.241L328 508.593L328 500.39L-7.09924e-06 365.038ZM-7.85987e-06 389.648L-7.60632e-06 381.444L328 516.796L328 524.999L-7.85987e-06 389.648ZM328 270.702L328 278.905L-2.53544e-07 143.554L0 135.351L328 270.702Z" fill="#FF6D00"/>
<path fill-rule="evenodd" clip-rule="evenodd" d="M656 159.961L656 151.758L328 287.109L328 295.312L656 159.961ZM656 168.164L328 303.515L328 311.719L656 176.367L656 168.164ZM328 328.125L328 319.922L656 184.57L656 192.773L328 328.125ZM328 336.328L328 344.531L656 209.18L656 200.976L328 336.328ZM328 360.937L328 352.734L656 217.383L656 225.586L328 360.937ZM328 369.14L328 377.344L656 241.992L656 233.789L328 369.14ZM328 393.75L328 385.547L656 250.195L656 258.398L328 393.75ZM328 401.953L328 410.156L656 274.805L656 266.601L328 401.953ZM328 426.562L328 418.359L656 283.008L656 291.211L328 426.562ZM328 434.765L328 442.969L656 307.617L656 299.414L328 434.765ZM328 459.375L328 451.172L656 315.82L656 324.023L328 459.375ZM328 467.578L328 475.781L656 340.43L656 332.226L328 467.578ZM328 492.187L328 483.984L656 348.633L656 356.836L328 492.187ZM328 500.39L328 508.594L656 373.242L656 365.039L328 500.39ZM328 525L328 516.797L656 381.445L656 389.648L328 525ZM656 135.351L656 143.555L328 278.906L328 270.703L656 135.351Z" fill="#FF6D00"/>
</svg>
